<?xml version="1.0" encoding="UTF-8" standalone="no"?>
<svg
   xmlns:dc="http://purl.org/dc/elements/1.1/"
   xmlns:cc="http://creativecommons.org/ns#"
   xmlns:rdf="http://www.w3.org/1999/02/22-rdf-syntax-ns#"
   xmlns:svg="http://www.w3.org/2000/svg"
   xmlns="http://www.w3.org/2000/svg"
   xmlns:sodipodi="http://sodipodi.sourceforge.net/DTD/sodipodi-0.dtd"
   xmlns:inkscape="http://www.inkscape.org/namespaces/inkscape"
   version="1.1"
   id="Capa_1"
   x="0px"
   y="0px"
   viewBox="0 0 512.008 512.008"
   style="enable-background:new 0 0 512.008 512.008;"
   xml:space="preserve"
   sodipodi:docname="hide.svg"
   inkscape:version="1.0.1 (3bc2e813f5, 2020-09-07)"><metadata
   id="metadata49"><rdf:RDF><cc:Work
       rdf:about=""><dc:format>image/svg+xml</dc:format><dc:type
         rdf:resource="http://purl.org/dc/dcmitype/StillImage" /></cc:Work></rdf:RDF></metadata><defs
   id="defs47" /><sodipodi:namedview
   pagecolor="#ffffff"
   bordercolor="#666666"
   borderopacity="1"
   objecttolerance="10"
   gridtolerance="10"
   guidetolerance="10"
   inkscape:pageopacity="0"
   inkscape:pageshadow="2"
   inkscape:window-width="1366"
   inkscape:window-height="705"
   id="namedview45"
   showgrid="false"
   inkscape:zoom="1.0507648"
   inkscape:cx="256.004"
   inkscape:cy="256.004"
   inkscape:window-x="-8"
   inkscape:window-y="-8"
   inkscape:window-maximized="1"
   inkscape:current-layer="Capa_1" />
<g
   id="g6"
   style="fill:#ffffff">
	<g
   id="g4"
   style="fill:#ffffff">
		<path
   d="M256.011,106.673c-131.435,0-248.555,136.619-253.483,142.443c-3.371,3.968-3.371,9.792,0,13.781    c2.944,3.477,45.995,53.461,108.075,93.269l66.859-66.859c-4.352-10.24-6.784-21.483-6.784-33.301    c0-47.061,38.272-85.333,85.333-85.333c11.819,0,23.061,2.432,33.301,6.784l54.976-54.976    C317.493,112.902,288.075,106.673,256.011,106.673z"
   id="path2"
   style="fill:#ffffff" />
	</g>
</g>
<g
   id="g12"
   style="fill:#ffffff">
	<g
   id="g10"
   style="fill:#ffffff">
		<path
   d="M510.112,249.926c-2.731-3.947-48.021-67.691-124.16-108.779l58.944-58.944c4.16-4.16,4.16-10.923,0-15.083    c-4.16-4.16-10.923-4.16-15.083,0L67.147,429.788c-4.16,4.16-4.16,10.923,0,15.083c2.069,2.091,4.8,3.136,7.531,3.136    c2.731,0,5.461-1.045,7.552-3.115l66.88-66.88c32.96,16.085,69.312,27.328,106.901,27.328    c131.435,0,248.555-136.619,253.483-142.443C512.587,259.206,512.864,253.894,510.112,249.926z M256.011,341.34    c-19.691,0-37.589-6.976-52.053-18.197l119.189-119.189c11.221,14.464,18.197,32.363,18.197,52.053    C341.344,303.068,303.072,341.34,256.011,341.34z"
   id="path8"
   style="fill:#ffffff" />
	</g>
</g>
<g
   id="g14"
   style="fill:#ffffff">
</g>
<g
   id="g16"
   style="fill:#ffffff">
</g>
<g
   id="g18"
   style="fill:#ffffff">
</g>
<g
   id="g20"
   style="fill:#ffffff">
</g>
<g
   id="g22"
   style="fill:#ffffff">
</g>
<g
   id="g24"
   style="fill:#ffffff">
</g>
<g
   id="g26"
   style="fill:#ffffff">
</g>
<g
   id="g28"
   style="fill:#ffffff">
</g>
<g
   id="g30"
   style="fill:#ffffff">
</g>
<g
   id="g32"
   style="fill:#ffffff">
</g>
<g
   id="g34"
   style="fill:#ffffff">
</g>
<g
   id="g36"
   style="fill:#ffffff">
</g>
<g
   id="g38"
   style="fill:#ffffff">
</g>
<g
   id="g40"
   style="fill:#ffffff">
</g>
<g
   id="g42"
   style="fill:#ffffff">
</g>
</svg>
