<?xml version="1.0" encoding="UTF-8" standalone="no"?>
<svg
   id="Capa_1"
   enable-background="new 0 0 512.004 512.004"
   height="512"
   viewBox="0 0 512.004 512.004"
   width="512"
   version="1.1"
   sodipodi:docname="button.svg"
   inkscape:version="1.1 (c68e22c387, 2021-05-23)"
   xmlns:inkscape="http://www.inkscape.org/namespaces/inkscape"
   xmlns:sodipodi="http://sodipodi.sourceforge.net/DTD/sodipodi-0.dtd"
   xmlns="http://www.w3.org/2000/svg"
   xmlns:svg="http://www.w3.org/2000/svg"
   xmlns:rdf="http://www.w3.org/1999/02/22-rdf-syntax-ns#"
   xmlns:cc="http://creativecommons.org/ns#"
   xmlns:dc="http://purl.org/dc/elements/1.1/">
  <metadata
     id="metadata25">
    <rdf:RDF>
      <cc:Work
         rdf:about="">
        <dc:format>image/svg+xml</dc:format>
        <dc:type
           rdf:resource="http://purl.org/dc/dcmitype/StillImage" />
      </cc:Work>
    </rdf:RDF>
  </metadata>
  <defs
     id="defs23" />
  <sodipodi:namedview
     pagecolor="#ffffff"
     bordercolor="#666666"
     borderopacity="1"
     objecttolerance="10"
     gridtolerance="10"
     guidetolerance="10"
     inkscape:pageopacity="0"
     inkscape:pageshadow="2"
     inkscape:window-width="1366"
     inkscape:window-height="705"
     id="namedview21"
     showgrid="false"
     inkscape:zoom="0.74301455"
     inkscape:cx="192.45922"
     inkscape:cy="250.33157"
     inkscape:window-x="-8"
     inkscape:window-y="-8"
     inkscape:window-maximized="1"
     inkscape:current-layer="Capa_1"
     inkscape:pagecheckerboard="0" />
  <g
     id="g18"
     style="fill:#707070;fill-opacity:1">
    <path
       d="m 137.706,295.041 h -19.324 c -29.094,1.164 -59.273,-29.215 -57.55,-58.172 v -94.547 c 0,-31.801 25.735,-57.673 57.369,-57.673 h 278.21 c 31.633,0 57.368,25.872 57.368,57.673 v 94.529 c 1.718,29.13 -28.605,59.362 -57.55,58.189 h -52.26 v -19.938 h 42.203 c 23.755,1.738 48.247,-23.063 46.795,-46.319 V 152.31 c 0,-25.688 -21.098,-46.588 -47.03,-46.588 H 173.618 c -4.142,0 -4.142,15 0,15 h 212.319 c 17.662,0 32.03,14.17 32.03,31.588 v 76.433 c 0.855,15.989 -15.712,32.484 -31.73,31.361 H 343.97 v -33.42 c 0,-19.655 -16.188,-35.646 -36.086,-35.646 -19.898,0 -36.086,15.991 -36.086,35.646 v 33.688 H 126.681 c -17.662,0 -32.03,-14.17 -32.03,-31.588 V 152.31 c 0,-17.418 14.369,-31.588 32.03,-31.588 l 53.77366,0 c 9.71984,0 7.70877,-15 0,-15 l -53.77366,0 c -25.933,0 -47.03,20.899 -47.03,46.588 v 76.475 c 0,25.688 21.098,46.588 47.03,46.588 h 145.117 v 19.67 h -99.092 m 0,15 h 99.092 v 103.03 l -28.331,-27.896 c -14.047,-13.831 -36.903,-13.831 -50.952,0 -14.018,13.244 -14.059,37.119 -0.087,50.407 l 58.319,61.173 c 8.647,9.413 20.177,14.915 32.685,15.244 h 126.071 c 4.142,0 7.5,-3.357 7.5,-7.5 0,-4.143 -3.358,-7.5 -7.5,-7.5 H 283.568 c -8.26,0.19 -18.251,-5.879 -21.913,-10.541 l -58.448,-61.308 c -8.267,-7.658 -8.363,-21.543 -0.166,-29.288 8.244,-8.117 21.658,-8.117 29.902,0 l 41.093,40.462 c 2.155,2.122 5.372,2.742 8.159,1.574 2.788,-1.168 4.603,-3.896 4.603,-6.918 0,-48.631 0.007,-156.805 0,-204.299 0,-11.385 9.459,-20.646 21.086,-20.646 11.627,0 21.086,9.262 21.086,20.646 v 159.871 c 0,4.143 3.358,7.5 7.5,7.5 4.142,0 7.5,-3.357 7.5,-7.5 v -58.461 c 2.754,-8.525 10.876,-14.413 20.083,-14.413 11.627,0 21.086,9.262 21.086,20.656 l 0.031,22.59 v 0.007 0.008 l 0.1,29.638 c 0.014,4.134 3.369,7.475 7.5,7.475 h 0.026 c 4.142,-0.014 7.488,-3.383 7.475,-7.525 l -0.1,-29.614 c 0.001,-11.384 9.459,-20.645 21.086,-20.645 11.627,0 21.086,9.262 21.086,20.646 v 24.527 5.283 c 0,4.143 3.358,7.5 7.5,7.5 4.142,0 7.5,-3.357 7.5,-7.5 v -5.283 c 0,-10.935 8.896,-19.831 19.83,-19.831 10.934,0 19.83,8.896 19.83,19.831 0.007,18.294 -0.01,76.033 0,94.91 0,11.385 -9.459,20.646 -21.086,20.646 h -30.505 c -4.142,0 -7.5,3.357 -7.5,7.5 0,4.143 3.358,7.5 7.5,7.5 h 30.505 c 19.898,0 36.086,-15.991 36.085,-35.709 -0.009,-18.981 0.007,-76.548 0,-94.848 0,-19.203 -15.624,-34.828 -34.83,-34.828 -7.463,0 -14.379,2.367 -20.054,6.379 -1.985,-17.815 -17.308,-31.722 -35.862,-31.722 -8.102,0 -15.587,2.65 -21.617,7.12 -1.196,-7.024 -4.485,-13.352 -9.202,-18.349 h 5.874 c 36.334,1.896 74.949,-36.863 72.469,-73.172 v -94.547 c 0,-40.072 -32.464,-72.673 -72.368,-72.673 h -278.21 c -39.904,0 -72.369,32.601 -72.369,72.673 v 94.564 c -2.419,36.502 36.225,75.016 72.469,73.154 h 19.404"
       id="path16"
       style="fill:#707070;fill-opacity:1"
       sodipodi:nodetypes="cccssssccccccsssssscccssscsssssssssscccccccccccssscccccccscssssscscccccssccsscsssssccsssssccscsccccssssccc" />
  </g>
</svg>
