<?xml version="1.0" encoding="UTF-8" standalone="no"?>
<svg
   xmlns:dc="http://purl.org/dc/elements/1.1/"
   xmlns:cc="http://creativecommons.org/ns#"
   xmlns:rdf="http://www.w3.org/1999/02/22-rdf-syntax-ns#"
   xmlns:svg="http://www.w3.org/2000/svg"
   xmlns="http://www.w3.org/2000/svg"
   xmlns:sodipodi="http://sodipodi.sourceforge.net/DTD/sodipodi-0.dtd"
   xmlns:inkscape="http://www.inkscape.org/namespaces/inkscape"
   id="Capa_1"
   enable-background="new 0 0 512.004 512.004"
   height="512"
   viewBox="0 0 512.004 512.004"
   width="512"
   version="1.1"
   sodipodi:docname="button.svg"
   inkscape:version="1.0.1 (3bc2e813f5, 2020-09-07)">
  <metadata
     id="metadata25">
    <rdf:RDF>
      <cc:Work
         rdf:about="">
        <dc:format>image/svg+xml</dc:format>
        <dc:type
           rdf:resource="http://purl.org/dc/dcmitype/StillImage" />
      </cc:Work>
    </rdf:RDF>
  </metadata>
  <defs
     id="defs23" />
  <sodipodi:namedview
     pagecolor="#ffffff"
     bordercolor="#666666"
     borderopacity="1"
     objecttolerance="10"
     gridtolerance="10"
     guidetolerance="10"
     inkscape:pageopacity="0"
     inkscape:pageshadow="2"
     inkscape:window-width="1366"
     inkscape:window-height="705"
     id="namedview21"
     showgrid="false"
     inkscape:zoom="0.52539063"
     inkscape:cx="214.38271"
     inkscape:cy="171.87452"
     inkscape:window-x="-8"
     inkscape:window-y="-8"
     inkscape:window-maximized="1"
     inkscape:current-layer="Capa_1" />
  <g
     id="g18"
     style="fill:#707070;fill-opacity:1">
    <path
       d="m425.529 53.349c3.926 0 7.228-3.056 7.478-7.028l2.015-31.984c.26-4.134-2.88-7.696-7.014-7.957-4.13-.239-7.696 2.881-7.957 7.014l-2.015 31.984c-.287 4.3 3.185 7.99 7.493 7.971z"
       id="path2"
       style="fill:#707070;fill-opacity:1" />
    <path
       d="m486.247 26.101c1.401 1.162 3.099 1.729 4.788 1.729 2.153 0 4.291-.923 5.774-2.709l10.653-12.829c2.646-3.187 2.208-7.915-.979-10.562-3.187-2.644-7.916-2.208-10.562.979l-10.652 12.831c-2.646 3.186-2.208 7.915.978 10.561z"
       id="path4"
       style="fill:#707070;fill-opacity:1" />
    <path
       d="m450.949 68.612c1.4 1.163 3.098 1.729 4.787 1.729 2.153 0 4.291-.923 5.774-2.709l12.466-15.014c2.646-3.187 2.208-7.915-.979-10.562-3.186-2.646-7.915-2.207-10.561.979l-12.466 15.015c-2.646 3.187-2.208 7.916.979 10.562z"
       id="path6"
       style="fill:#707070;fill-opacity:1" />
    <path
       d="m470.727 91.019c.987 3.231 3.958 5.312 7.171 5.312.725 0 1.463-.106 2.192-.329l26.189-7.996c3.962-1.209 6.193-5.401 4.983-9.363s-5.403-6.192-9.363-4.982l-26.189 7.996c-3.962 1.208-6.193 5.4-4.983 9.362z"
       id="path8"
       style="fill:#707070;fill-opacity:1" />
    <path
       d="m86.541 321.862c-4.121-.236-7.696 2.88-7.957 7.014l-2.014 31.984c-.287 4.3 3.184 7.99 7.493 7.972 3.927 0 7.228-3.055 7.478-7.028l2.014-31.984c.26-4.135-2.88-7.697-7.014-7.958z"
       id="path10"
       style="fill:#707070;fill-opacity:1" />
    <path
       d="m60.642 306.585c-3.186-2.646-7.915-2.208-10.561.979l-45.951 55.34c-2.646 3.187-2.208 7.915.979 10.562 1.4 1.163 3.098 1.729 4.787 1.729 2.153 0 4.291-.923 5.774-2.709l45.951-55.34c2.646-3.186 2.208-7.915-.979-10.561z"
       id="path12"
       style="fill:#707070;fill-opacity:1" />
    <path
       d="m9.692 301.537 26.189-7.996c3.962-1.209 6.193-5.401 4.983-9.363s-5.402-6.192-9.363-4.982l-26.189 7.996c-3.962 1.209-6.193 5.401-4.983 9.363.987 3.231 3.958 5.312 7.171 5.312.725-.001 1.463-.108 2.192-.33z"
       id="path14"
       style="fill:#707070;fill-opacity:1" />
    <path
       d="m477.172 346.614c-7.463 0-14.379 2.367-20.054 6.379-1.985-17.815-17.308-31.722-35.862-31.722-8.102 0-15.587 2.65-21.617 7.12-1.196-7.024-4.485-13.352-9.202-18.349h5.874c36.334 1.896 74.949-36.863 72.469-73.172v-94.547c0-40.072-32.464-72.673-72.368-72.673h-278.21c-39.904 0-72.369 32.601-72.369 72.673v94.564c-2.419 36.502 36.225 75.016 72.469 73.154h19.404c4.142 0 7.5-3.357 7.5-7.5s-3.358-7.5-7.5-7.5h-19.324c-29.094 1.164-59.273-29.215-57.55-58.172v-94.547c0-31.801 25.735-57.673 57.369-57.673h278.21c31.633 0 57.368 25.872 57.368 57.673v94.529c1.718 29.13-28.605 59.362-57.55 58.189h-52.26v-19.938h42.203c23.755 1.738 48.247-23.063 46.795-46.319v-76.473c0-25.688-21.098-46.588-47.03-46.588h-212.319c-4.142 0-7.5 3.357-7.5 7.5s3.358 7.5 7.5 7.5h212.319c17.662 0 32.03 14.17 32.03 31.588v76.433c.855 15.989-15.712 32.484-31.73 31.361h-42.267v-33.42c0-19.655-16.188-35.646-36.086-35.646s-36.086 15.991-36.086 35.646v33.688h-145.117c-17.662 0-32.03-14.17-32.03-31.588v-76.474c0-17.418 14.369-31.588 32.03-31.588h11.042c4.142 0 7.5-3.357 7.5-7.5s-3.358-7.5-7.5-7.5h-11.042c-25.933 0-47.03 20.899-47.03 46.588v76.475c0 25.688 21.098 46.588 47.03 46.588h145.117v19.67h-99.092c-4.142 0-7.5 3.357-7.5 7.5s3.358 7.5 7.5 7.5h99.092v103.03l-28.331-27.896c-14.047-13.831-36.903-13.831-50.952 0-14.018 13.244-14.059 37.119-.087 50.407l58.319 61.173c8.647 9.413 20.177 14.915 32.685 15.244h126.071c4.142 0 7.5-3.357 7.5-7.5s-3.358-7.5-7.5-7.5h-125.935c-8.26.19-18.251-5.879-21.913-10.541l-58.448-61.308c-8.267-7.658-8.363-21.543-.166-29.288 8.244-8.117 21.658-8.117 29.902 0l41.093 40.462c2.155 2.122 5.372 2.742 8.159 1.574 2.788-1.168 4.603-3.896 4.603-6.918 0-48.631.007-156.805 0-204.299 0-11.385 9.459-20.646 21.086-20.646s21.086 9.262 21.086 20.646v159.871c0 4.143 3.358 7.5 7.5 7.5s7.5-3.357 7.5-7.5v-58.461c2.754-8.525 10.876-14.413 20.083-14.413 11.627 0 21.086 9.262 21.086 20.656l.031 22.59v.007.008l.1 29.638c.014 4.134 3.369 7.475 7.5 7.475h.026c4.142-.014 7.488-3.383 7.475-7.525l-.1-29.614c.001-11.384 9.459-20.645 21.086-20.645s21.086 9.262 21.086 20.646v24.527 5.283c0 4.143 3.358 7.5 7.5 7.5s7.5-3.357 7.5-7.5v-5.283c0-10.935 8.896-19.831 19.83-19.831s19.83 8.896 19.83 19.831c.007 18.294-.01 76.033 0 94.91 0 11.385-9.459 20.646-21.086 20.646h-30.505c-4.142 0-7.5 3.357-7.5 7.5s3.358 7.5 7.5 7.5h30.505c19.898 0 36.086-15.991 36.085-35.709-.009-18.981.007-76.548 0-94.848 0-19.203-15.624-34.828-34.83-34.828z"
       id="path16"
       style="fill:#707070;fill-opacity:1" />
  </g>
</svg>
