<?xml version="1.0" encoding="UTF-8" standalone="no"?>
<svg
   xmlns:dc="http://purl.org/dc/elements/1.1/"
   xmlns:cc="http://creativecommons.org/ns#"
   xmlns:rdf="http://www.w3.org/1999/02/22-rdf-syntax-ns#"
   xmlns:svg="http://www.w3.org/2000/svg"
   xmlns="http://www.w3.org/2000/svg"
   xmlns:sodipodi="http://sodipodi.sourceforge.net/DTD/sodipodi-0.dtd"
   xmlns:inkscape="http://www.inkscape.org/namespaces/inkscape"
   version="1.1"
   id="Capa_1"
   x="0px"
   y="0px"
   viewBox="0 0 512 512"
   style="enable-background:new 0 0 512 512;"
   xml:space="preserve"
   sodipodi:docname="image.svg"
   inkscape:version="1.0.1 (3bc2e813f5, 2020-09-07)"><metadata
   id="metadata49"><rdf:RDF><cc:Work
       rdf:about=""><dc:format>image/svg+xml</dc:format><dc:type
         rdf:resource="http://purl.org/dc/dcmitype/StillImage" /></cc:Work></rdf:RDF></metadata><defs
   id="defs47"><filter
     inkscape:collect="always"
     style="color-interpolation-filters:sRGB"
     id="filter874"
     x="-1.2e-06"
     width="1.0000024"
     y="-1.2e-06"
     height="1.0000024"><feGaussianBlur
       inkscape:collect="always"
       stdDeviation="0.000256"
       id="feGaussianBlur876" /></filter><filter
     inkscape:collect="always"
     style="color-interpolation-filters:sRGB"
     id="filter878"
     x="-4.2248291e-06"
     width="1.0000084"
     y="-4.2248291e-06"
     height="1.0000084"><feGaussianBlur
       inkscape:collect="always"
       stdDeviation="0.000256"
       id="feGaussianBlur880" /></filter></defs><sodipodi:namedview
   pagecolor="#ffffff"
   bordercolor="#666666"
   borderopacity="1"
   objecttolerance="10"
   gridtolerance="10"
   guidetolerance="10"
   inkscape:pageopacity="0"
   inkscape:pageshadow="2"
   inkscape:window-width="1366"
   inkscape:window-height="705"
   id="namedview45"
   showgrid="false"
   inkscape:zoom="0.52539063"
   inkscape:cx="-41.574716"
   inkscape:cy="259.70342"
   inkscape:window-x="-8"
   inkscape:window-y="-8"
   inkscape:window-maximized="1"
   inkscape:current-layer="Capa_1" />
<g
   id="g6"
   transform="matrix(0.92936803,0,0,0.92936803,18.081784,18.081784)"
   style="filter:url(#filter874);fill:#707070;fill-opacity:1">
	<g
   id="g4"
   style="fill:#707070;fill-opacity:1">
		<path
   d="M 446.575,0 H 65.425 C 29.349,0 0,29.35 0,65.426 V 446.575 C 0,482.65 29.349,512 65.425,512 h 381.15 C 482.651,512 512,482.65 512,446.574 V 65.426 C 512,29.35 482.651,0 446.575,0 Z m 35.267,446.575 c 0,19.447 -15.821,35.267 -35.267,35.267 H 65.425 c -19.447,0 -35.268,-15.821 -35.268,-35.267 v -55.007 l 99.255,-84.451 c 3.622,-3.082 8.906,-3.111 12.562,-0.075 l 62.174,51.628 c 5.995,4.977 14.795,4.569 20.304,-0.946 L 372.181,209.77 c 2.67,-2.675 5.783,-2.935 7.408,-2.852 1.62,0.083 4.695,0.661 7.078,3.596 l 95.176,117.19 v 118.871 z m 0,-166.71 -71.766,-88.366 c -7.117,-8.764 -17.666,-14.122 -28.942,-14.701 -11.268,-0.57 -22.317,3.672 -30.294,11.662 L 212.832,326.681 161.242,283.842 C 146.283,271.42 124.679,271.549 109.869,284.15 L 30.157,351.972 V 65.426 c 0,-19.447 15.821,-35.268 35.268,-35.268 h 381.15 c 19.447,0 35.267,15.821 35.267,35.268 z"
   id="path2"
   style="fill:#707070;fill-opacity:1" />
	</g>
</g>
<g
   id="g12"
   transform="matrix(0.92936803,0,0,0.92936803,11.042754,23.289959)"
   style="filter:url(#filter878);fill:#707070;fill-opacity:1">
	<g
   id="g10"
   style="fill:#707070;fill-opacity:1">
		<path
   d="m 161.174,62.995 c -40.095,0 -72.713,32.62 -72.713,72.713 0,40.094 32.619,72.713 72.713,72.713 40.094,0 72.713,-32.619 72.713,-72.713 0,-40.094 -32.618,-72.713 -72.713,-72.713 z m 0,115.269 c -23.466,0 -42.556,-19.091 -42.556,-42.556 0,-23.466 19.09,-42.556 42.556,-42.556 23.466,0 42.556,19.091 42.556,42.556 0,23.465 -19.09,42.556 -42.556,42.556 z"
   id="path8"
   style="fill:#707070;fill-opacity:1" />
	</g>
</g>
<g
   id="g14">
</g>
<g
   id="g16">
</g>
<g
   id="g18">
</g>
<g
   id="g20">
</g>
<g
   id="g22">
</g>
<g
   id="g24">
</g>
<g
   id="g26">
</g>
<g
   id="g28">
</g>
<g
   id="g30">
</g>
<g
   id="g32">
</g>
<g
   id="g34">
</g>
<g
   id="g36">
</g>
<g
   id="g38">
</g>
<g
   id="g40">
</g>
<g
   id="g42">
</g>
</svg>
