<?xml version="1.0" encoding="UTF-8" standalone="no"?>
<svg
   version="1.1"
   width="16"
   height="16"
   viewBox="0 0 16 16"
   id="svg6"
   sodipodi:docname="input-button.svg"
   inkscape:version="1.1 (c68e22c387, 2021-05-23)"
   xmlns:inkscape="http://www.inkscape.org/namespaces/inkscape"
   xmlns:sodipodi="http://sodipodi.sourceforge.net/DTD/sodipodi-0.dtd"
   xmlns="http://www.w3.org/2000/svg"
   xmlns:svg="http://www.w3.org/2000/svg"
   xmlns:rdf="http://www.w3.org/1999/02/22-rdf-syntax-ns#"
   xmlns:cc="http://creativecommons.org/ns#"
   xmlns:dc="http://purl.org/dc/elements/1.1/">
  <metadata
     id="metadata12">
    <rdf:RDF>
      <cc:Work
         rdf:about="">
        <dc:format>image/svg+xml</dc:format>
        <dc:type
           rdf:resource="http://purl.org/dc/dcmitype/StillImage" />
      </cc:Work>
    </rdf:RDF>
  </metadata>
  <defs
     id="defs10" />
  <sodipodi:namedview
     pagecolor="#ffffff"
     bordercolor="#666666"
     borderopacity="1"
     objecttolerance="10"
     gridtolerance="10"
     guidetolerance="10"
     inkscape:pageopacity="0"
     inkscape:pageshadow="2"
     inkscape:window-width="1366"
     inkscape:window-height="705"
     id="namedview8"
     showgrid="false"
     inkscape:zoom="33.625"
     inkscape:cx="4.0148699"
     inkscape:cy="6.0669145"
     inkscape:window-x="-8"
     inkscape:window-y="-8"
     inkscape:window-maximized="1"
     inkscape:current-layer="svg6"
     inkscape:pagecheckerboard="0" />
  <path
     fill="#444444"
     d="M16 5c0-0.6-0.4-1-1-1h-14c-0.6 0-1 0.4-1 1v6c0 0.6 0.4 1 1 1h14c0.6 0 1-0.4 1-1v-6zM15 11h-14v-6h14v6z"
     id="path2"
     style="fill:#707070;fill-opacity:1" />
  <path
     fill="#444444"
     d="m 14.129687,6.2789802 c 0,-0.344204 -0.306484,-0.5736734 -0.766211,-0.5736734 H 2.6365237 c -0.4597266,0 -0.7662111,0.2294694 -0.7662111,0.5736734 v 3.4420397 c 0,0.3442031 0.3064845,0.5736731 0.7662111,0.5736731 H 13.363476 c 0.459727,0 0.766211,-0.22947 0.766211,-0.5736731 z M 13.363476,9.7210199 H 2.6365237 V 6.2789802 H 13.363476 Z"
     id="path1093"
     style="fill:#707070;fill-opacity:1;stroke-width:0.66299" />
</svg>
