<?xml version="1.0" encoding="UTF-8" standalone="no"?>
<svg
   xmlns:dc="http://purl.org/dc/elements/1.1/"
   xmlns:cc="http://creativecommons.org/ns#"
   xmlns:rdf="http://www.w3.org/1999/02/22-rdf-syntax-ns#"
   xmlns:svg="http://www.w3.org/2000/svg"
   xmlns="http://www.w3.org/2000/svg"
   xmlns:sodipodi="http://sodipodi.sourceforge.net/DTD/sodipodi-0.dtd"
   xmlns:inkscape="http://www.inkscape.org/namespaces/inkscape"
   version="1.1"
   id="Capa_1"
   x="0px"
   y="0px"
   viewBox="0 0 511.997 511.997"
   style="enable-background:new 0 0 511.997 511.997;"
   xml:space="preserve"
   sodipodi:docname="link.svg"
   inkscape:version="1.0.1 (3bc2e813f5, 2020-09-07)"><metadata
   id="metadata47"><rdf:RDF><cc:Work
       rdf:about=""><dc:format>image/svg+xml</dc:format><dc:type
         rdf:resource="http://purl.org/dc/dcmitype/StillImage" /></cc:Work></rdf:RDF></metadata><defs
   id="defs45" /><sodipodi:namedview
   pagecolor="#ffffff"
   bordercolor="#666666"
   borderopacity="1"
   objecttolerance="10"
   gridtolerance="10"
   guidetolerance="10"
   inkscape:pageopacity="0"
   inkscape:pageshadow="2"
   inkscape:window-width="1366"
   inkscape:window-height="705"
   id="namedview43"
   showgrid="false"
   inkscape:zoom="0.52539369"
   inkscape:cx="117.86303"
   inkscape:cy="258.34643"
   inkscape:window-x="-8"
   inkscape:window-y="-8"
   inkscape:window-maximized="1"
   inkscape:current-layer="Capa_1" />
<g
   transform="matrix(0.80297054,0,0,0.80297054,51.24182,51.242422)"
   id="g10"
   style="opacity:0.998;fill:#707070;fill-opacity:1">
	<g
   id="g8"
   style="fill:#707070;fill-opacity:1">
		<g
   id="g6"
   style="fill:#707070;fill-opacity:1">
			<path
   d="m 211.26,389.24 -60.331,60.331 C 125.917,474.583 85.412,474.583 60.421,449.576 35.425,424.58 35.425,384.071 60.416,359.08 L 181.099,238.397 c 24.991,-24.992 65.5,-24.992 90.491,0 8.331,8.331 21.839,8.331 30.17,0 8.331,-8.331 8.331,-21.839 0,-30.17 -41.654,-41.654 -109.177,-41.654 -150.831,0 L 30.247,328.909 c -41.654,41.654 -41.654,109.177 0,150.831 41.649,41.676 109.177,41.676 150.853,0 l 60.331,-60.331 c 8.331,-8.331 8.331,-21.839 0,-30.17 -8.331,-8.331 -21.84,-8.33 -30.171,0.001 z"
   id="path2"
   style="fill:#707070;fill-opacity:1" />
			<path
   d="m 479.751,30.24 c -41.654,-41.654 -109.199,-41.654 -150.853,0 l -72.384,72.384 c -8.331,8.331 -8.331,21.839 0,30.17 8.331,8.331 21.839,8.331 30.17,0 L 359.068,60.41 c 24.991,-24.992 65.521,-24.992 90.513,0 24.991,24.991 24.991,65.5 0,90.491 L 316.845,283.638 c -24.992,24.992 -65.5,24.992 -90.491,0 -8.331,-8.331 -21.839,-8.331 -30.17,0 -8.331,8.331 -8.331,21.839 0,30.17 41.654,41.654 109.177,41.654 150.831,0 L 479.751,181.072 c 41.654,-41.654 41.654,-109.178 0,-150.832 z"
   id="path4"
   style="fill:#707070;fill-opacity:1" />
		</g>
	</g>
</g>
<g
   id="g12">
</g>
<g
   id="g14">
</g>
<g
   id="g16">
</g>
<g
   id="g18">
</g>
<g
   id="g20">
</g>
<g
   id="g22">
</g>
<g
   id="g24">
</g>
<g
   id="g26">
</g>
<g
   id="g28">
</g>
<g
   id="g30">
</g>
<g
   id="g32">
</g>
<g
   id="g34">
</g>
<g
   id="g36">
</g>
<g
   id="g38">
</g>
<g
   id="g40">
</g>
</svg>
