<?xml version="1.0" encoding="UTF-8" standalone="no"?>
<svg
   xmlns:dc="http://purl.org/dc/elements/1.1/"
   xmlns:cc="http://creativecommons.org/ns#"
   xmlns:rdf="http://www.w3.org/1999/02/22-rdf-syntax-ns#"
   xmlns:svg="http://www.w3.org/2000/svg"
   xmlns="http://www.w3.org/2000/svg"
   xmlns:sodipodi="http://sodipodi.sourceforge.net/DTD/sodipodi-0.dtd"
   xmlns:inkscape="http://www.inkscape.org/namespaces/inkscape"
   version="1.1"
   id="Capa_1"
   x="0px"
   y="0px"
   viewBox="0 0 502.56 502.56"
   style="enable-background:new 0 0 502.56 502.56;"
   xml:space="preserve"
   sodipodi:docname="minimize.svg"
   inkscape:version="1.0.1 (3bc2e813f5, 2020-09-07)"><metadata
   id="metadata51"><rdf:RDF><cc:Work
       rdf:about=""><dc:format>image/svg+xml</dc:format><dc:type
         rdf:resource="http://purl.org/dc/dcmitype/StillImage" /></cc:Work></rdf:RDF></metadata><defs
   id="defs49" /><sodipodi:namedview
   pagecolor="#ffffff"
   bordercolor="#666666"
   borderopacity="1"
   objecttolerance="10"
   gridtolerance="10"
   guidetolerance="10"
   inkscape:pageopacity="0"
   inkscape:pageshadow="2"
   inkscape:window-width="1366"
   inkscape:window-height="705"
   id="namedview47"
   showgrid="false"
   inkscape:zoom="0.53525947"
   inkscape:cx="-28.222615"
   inkscape:cy="261.79263"
   inkscape:window-x="-8"
   inkscape:window-y="-8"
   inkscape:window-maximized="1"
   inkscape:current-layer="Capa_1" />
<g
   id="g14"
   style="fill:#666666;fill-opacity:1">
	<g
   id="g12"
   style="fill:#666666;fill-opacity:1">
		<g
   id="g10"
   style="fill:#666666;fill-opacity:1">
			<path
   d="M171.36,148.8L22.72,0L0,22.72l148.8,148.64H75.36v32h112c8.837,0,16-7.163,16-16v-112h-32V148.8z"
   id="path2"
   style="fill:#666666;fill-opacity:1" />
			<path
   d="M315.36,203.36h112v-32h-73.44L502.56,22.72L480,0L331.36,148.8V75.36h-32v112     C299.36,196.197,306.523,203.36,315.36,203.36z"
   id="path4"
   style="fill:#666666;fill-opacity:1" />
			<path
   d="M427.36,331.36v-32h-112c-8.837,0-16,7.163-16,16v112h32v-73.44L480,502.56L502.56,480L353.92,331.36H427.36z"
   id="path6"
   style="fill:#666666;fill-opacity:1" />
			<path
   d="M187.36,299.36h-112v32h73.44L0,480l22.56,22.56l148.8-148.64v73.44h32v-112     C203.36,306.523,196.197,299.36,187.36,299.36z"
   id="path8"
   style="fill:#666666;fill-opacity:1" />
		</g>
	</g>
</g>
<g
   id="g16">
</g>
<g
   id="g18">
</g>
<g
   id="g20">
</g>
<g
   id="g22">
</g>
<g
   id="g24">
</g>
<g
   id="g26">
</g>
<g
   id="g28">
</g>
<g
   id="g30">
</g>
<g
   id="g32">
</g>
<g
   id="g34">
</g>
<g
   id="g36">
</g>
<g
   id="g38">
</g>
<g
   id="g40">
</g>
<g
   id="g42">
</g>
<g
   id="g44">
</g>
</svg>
