<?xml version="1.0" encoding="UTF-8" standalone="no"?>
<svg
   xmlns:dc="http://purl.org/dc/elements/1.1/"
   xmlns:cc="http://creativecommons.org/ns#"
   xmlns:rdf="http://www.w3.org/1999/02/22-rdf-syntax-ns#"
   xmlns:svg="http://www.w3.org/2000/svg"
   xmlns="http://www.w3.org/2000/svg"
   xmlns:sodipodi="http://sodipodi.sourceforge.net/DTD/sodipodi-0.dtd"
   xmlns:inkscape="http://www.inkscape.org/namespaces/inkscape"
   width="210mm"
   height="297mm"
   viewBox="0 0 210 297"
   version="1.1"
   id="svg8"
   inkscape:version="1.0.1 (3bc2e813f5, 2020-09-07)"
   sodipodi:docname="monitor.svg">
  <defs
     id="defs2" />
  <sodipodi:namedview
     id="base"
     pagecolor="#ffffff"
     bordercolor="#666666"
     borderopacity="1.0"
     inkscape:pageopacity="0.0"
     inkscape:pageshadow="2"
     inkscape:zoom="0.3655366"
     inkscape:cx="138.96763"
     inkscape:cy="548.20123"
     inkscape:document-units="mm"
     inkscape:current-layer="layer1"
     inkscape:document-rotation="0"
     showgrid="false"
     inkscape:window-width="1366"
     inkscape:window-height="705"
     inkscape:window-x="-8"
     inkscape:window-y="-8"
     inkscape:window-maximized="1" />
  <metadata
     id="metadata5">
    <rdf:RDF>
      <cc:Work
         rdf:about="">
        <dc:format>image/svg+xml</dc:format>
        <dc:type
           rdf:resource="http://purl.org/dc/dcmitype/StillImage" />
        <dc:title />
      </cc:Work>
    </rdf:RDF>
  </metadata>
  <g
     inkscape:label="Layer 1"
     inkscape:groupmode="layer"
     id="layer1">
    <path
       d="M 227.44539,26.192961 H -17.445392 c -8.962348,0 -16.253811,7.125577 -16.253811,15.88403 V 199.85838 c 0,8.75845 7.291463,15.88405 16.253811,15.88405 h 79.643678 v 39.18058 h -43.88529 c -4.48822,0 -8.126906,3.55591 -8.126906,7.94202 0,4.38612 3.638686,7.94201 8.126906,7.94201 H 191.68701 c 4.48819,0 8.12689,-3.55589 8.12689,-7.94201 0,-4.38611 -3.6387,-7.94202 -8.12689,-7.94202 H 147.8017 v -39.18058 h 79.64369 c 8.96233,0 16.25381,-7.1256 16.25381,-15.88405 V 42.076991 c 0,-8.758453 -7.29148,-15.88403 -16.25381,-15.88403 z M 131.54791,254.92301 H 78.452094 v -39.18058 h 53.095816 z m 95.89748,-55.06463 c -7.1284,0 -239.178107,0 -244.89078,0 V 42.076991 h 244.89078 c 0.0106,161.208099 0.0543,157.781389 0,157.781389 z"
       id="path10"
       style="fill:#666666;fill-opacity:1;stroke-width:0.535593" />
  </g>
</svg>
