<?xml version="1.0" encoding="UTF-8" standalone="no"?>
<svg
   xmlns:dc="http://purl.org/dc/elements/1.1/"
   xmlns:cc="http://creativecommons.org/ns#"
   xmlns:rdf="http://www.w3.org/1999/02/22-rdf-syntax-ns#"
   xmlns:svg="http://www.w3.org/2000/svg"
   xmlns="http://www.w3.org/2000/svg"
   xmlns:sodipodi="http://sodipodi.sourceforge.net/DTD/sodipodi-0.dtd"
   xmlns:inkscape="http://www.inkscape.org/namespaces/inkscape"
   height="512pt"
   viewBox="0 -36 512 512"
   width="512pt"
   version="1.1"
   id="svg4"
   sodipodi:docname="radio-button.svg"
   inkscape:version="1.0.1 (3bc2e813f5, 2020-09-07)">
  <metadata
     id="metadata10">
    <rdf:RDF>
      <cc:Work
         rdf:about="">
        <dc:format>image/svg+xml</dc:format>
        <dc:type
           rdf:resource="http://purl.org/dc/dcmitype/StillImage" />
      </cc:Work>
    </rdf:RDF>
  </metadata>
  <defs
     id="defs8" />
  <sodipodi:namedview
     pagecolor="#ffffff"
     bordercolor="#666666"
     borderopacity="1"
     objecttolerance="10"
     gridtolerance="10"
     guidetolerance="10"
     inkscape:pageopacity="0"
     inkscape:pageshadow="2"
     inkscape:window-width="1366"
     inkscape:window-height="705"
     id="namedview6"
     showgrid="false"
     inkscape:zoom="0.55726091"
     inkscape:cx="272.48047"
     inkscape:cy="229.0829"
     inkscape:window-x="-8"
     inkscape:window-y="-8"
     inkscape:window-maximized="1"
     inkscape:current-layer="svg4" />
  <path
     d="m 112.88362,201.65173 c -50.586701,0 -91.741257,-41.15456 -91.741257,-91.74126 0,-50.586694 41.154556,-91.74125 91.741257,-91.74125 50.5867,0 91.74126,41.154556 91.74126,91.74125 0,50.5867 -41.15456,91.74126 -91.74126,91.74126 z m 0,-146.786006 c -30.353453,0 -55.044753,24.6913 -55.044753,55.044746 0,30.35346 24.6913,55.04476 55.044753,55.04476 30.35346,0 55.04476,-24.6913 55.04476,-55.04476 0,-30.353446 -24.6913,-55.044746 -55.04476,-55.044746 z m 377.974,36.696501 H 241.32139 v 36.696505 h 249.53623 z m -377.974,0 c -10.11662,0 -18.348248,8.23163 -18.348248,18.348245 0,10.11663 8.231628,18.34826 18.348248,18.34826 10.11663,0 18.34825,-8.23163 18.34825,-18.34826 0,-10.116615 -8.23162,-18.348245 -18.34825,-18.348245 z m 0,330.268535 c -50.586701,0 -91.741257,-41.15456 -91.741257,-91.74126 0,-50.5867 41.154556,-91.74126 91.741257,-91.74126 50.5867,0 91.74126,41.15456 91.74126,91.74126 0,50.5867 -41.15456,91.74126 -91.74126,91.74126 z m 0,-146.78602 c -30.353453,0 -55.044753,24.6913 -55.044753,55.04476 0,30.35346 24.6913,55.04475 55.044753,55.04475 30.35346,0 55.04476,-24.69129 55.04476,-55.04475 0,-30.35346 -24.6913,-55.04476 -55.04476,-55.04476 z m 377.974,36.69651 H 241.32139 v 36.6965 h 249.53623 z m 0,0"
     id="path2"
     style="stroke-width:0.917413;fill:#707070;fill-opacity:1" />
</svg>
