<?xml version="1.0" encoding="UTF-8" standalone="no"?>
<svg
   xmlns:dc="http://purl.org/dc/elements/1.1/"
   xmlns:cc="http://creativecommons.org/ns#"
   xmlns:rdf="http://www.w3.org/1999/02/22-rdf-syntax-ns#"
   xmlns:svg="http://www.w3.org/2000/svg"
   xmlns="http://www.w3.org/2000/svg"
   xmlns:sodipodi="http://sodipodi.sourceforge.net/DTD/sodipodi-0.dtd"
   xmlns:inkscape="http://www.inkscape.org/namespaces/inkscape"
   id="Capa_1"
   enable-background="new 0 0 512 512"
   height="512"
   viewBox="0 0 512 512"
   width="512"
   version="1.1"
   sodipodi:docname="youtube.svg"
   inkscape:version="1.0.1 (3bc2e813f5, 2020-09-07)">
  <metadata
     id="metadata13">
    <rdf:RDF>
      <cc:Work
         rdf:about="">
        <dc:format>image/svg+xml</dc:format>
        <dc:type
           rdf:resource="http://purl.org/dc/dcmitype/StillImage" />
      </cc:Work>
    </rdf:RDF>
  </metadata>
  <defs
     id="defs11" />
  <sodipodi:namedview
     pagecolor="#ffffff"
     bordercolor="#666666"
     borderopacity="1"
     objecttolerance="10"
     gridtolerance="10"
     guidetolerance="10"
     inkscape:pageopacity="0"
     inkscape:pageshadow="2"
     inkscape:window-width="1366"
     inkscape:window-height="705"
     id="namedview9"
     showgrid="false"
     inkscape:zoom="0.52539063"
     inkscape:cx="-28.752744"
     inkscape:cy="276.18721"
     inkscape:window-x="-8"
     inkscape:window-y="-8"
     inkscape:window-maximized="1"
     inkscape:current-layer="Capa_1" />
  <g
     id="g6"
     style="fill:#707070;fill-opacity:1">
    <path
       d="m338.95 243.28-120-75c-4.625-2.89-10.453-3.043-15.222-.4-4.77 2.643-7.729 7.667-7.729 13.12v150c0 5.453 2.959 10.476 7.729 13.12 2.266 1.256 4.77 1.88 7.271 1.88 2.763 0 5.522-.763 7.95-2.28l120-75c4.386-2.741 7.05-7.548 7.05-12.72s-2.663-9.979-7.049-12.72zm-112.95 60.656v-95.873l76.698 47.937z"
       id="path2"
       style="fill:#707070;fill-opacity:1" />
    <path
       d="m437 61h-362c-41.355 0-75 33.645-75 75v240c0 41.355 33.645 75 75 75h362c41.355 0 75-33.645 75-75v-240c0-41.355-33.645-75-75-75zm45 315c0 24.813-20.187 45-45 45h-362c-24.813 0-45-20.187-45-45v-240c0-24.813 20.187-45 45-45h362c24.813 0 45 20.187 45 45z"
       id="path4"
       style="fill:#707070;fill-opacity:1" />
  </g>
</svg>
