<?xml version="1.0" encoding="UTF-8" standalone="no"?>
<!-- Created with Inkscape (http://www.inkscape.org/) -->

<svg
   width="140.30772mm"
   height="137.27084mm"
   viewBox="0 0 140.30772 137.27084"
   version="1.1"
   id="svg1016"
   inkscape:version="1.1 (c68e22c387, 2021-05-23)"
   sodipodi:docname="logo_v.svg"
   xmlns:inkscape="http://www.inkscape.org/namespaces/inkscape"
   xmlns:sodipodi="http://sodipodi.sourceforge.net/DTD/sodipodi-0.dtd"
   xmlns="http://www.w3.org/2000/svg"
   xmlns:svg="http://www.w3.org/2000/svg">
  <sodipodi:namedview
     id="namedview1018"
     pagecolor="#ffffff"
     bordercolor="#999999"
     borderopacity="1"
     inkscape:pageshadow="0"
     inkscape:pageopacity="0"
     inkscape:pagecheckerboard="0"
     inkscape:document-units="mm"
     showgrid="false"
     inkscape:zoom="0.44542649"
     inkscape:cx="255.93449"
     inkscape:cy="260.42457"
     inkscape:window-width="1366"
     inkscape:window-height="705"
     inkscape:window-x="-8"
     inkscape:window-y="-8"
     inkscape:window-maximized="1"
     inkscape:current-layer="layer1"
     fit-margin-top="0"
     fit-margin-left="0"
     fit-margin-right="0"
     fit-margin-bottom="0" />
  <defs
     id="defs1013" />
  <g
     inkscape:label="Layer 1"
     inkscape:groupmode="layer"
     id="layer1"
     transform="translate(-34.84614,-79.86458)">
    <g
       id="g100577"
       transform="translate(-754.63356,-59.1083)">
      <g
         id="g98074"
         transform="translate(4.5150775)">
        <path
           id="path88658"
           style="fill:#6aa6f5;fill-opacity:1;stroke:none;stroke-width:5.10703;stroke-linecap:round;stroke-linejoin:round;stroke-miterlimit:4;stroke-dasharray:none;stroke-opacity:1;paint-order:markers fill stroke"
           d="m 855.11853,138.97288 -39.1771,22.61898 39.1771,22.61896 39.177,-22.61896 z"
           inkscape:transform-center-x="4.9489457e-05"
           inkscape:transform-center-y="-1.2368513e-06" />
        <path
           id="path88660"
           style="fill:#3888f5;fill-opacity:1;stroke:none;stroke-width:5.10703;stroke-linecap:round;stroke-linejoin:round;stroke-miterlimit:4;stroke-dasharray:none;stroke-opacity:1;paint-order:markers fill stroke"
           inkscape:transform-center-x="3.4902776e-05"
           d="m 894.29553,161.59186 -39.177,22.61896 v 45.23791 l 39.177,-22.61896 z"
           inkscape:transform-center-y="-1.319995e-06" />
        <path
           id="path88662"
           style="fill:#7fb2f5;fill-opacity:1;stroke:none;stroke-width:5.10703;stroke-linecap:round;stroke-linejoin:round;stroke-miterlimit:4;stroke-dasharray:none;stroke-opacity:1;paint-order:markers fill stroke"
           inkscape:transform-center-x="-3.6228061e-06"
           d="m 815.94143,161.59186 39.1771,22.61896 v 45.23791 l -39.1771,-22.61896 z"
           inkscape:transform-center-y="-1.319995e-06" />
        <path
           id="path90006"
           style="fill:#6aa6f5;fill-opacity:1;stroke:none;stroke-width:2.90452;stroke-linecap:round;stroke-linejoin:round;stroke-miterlimit:4;stroke-dasharray:none;stroke-opacity:1;paint-order:markers fill stroke"
           d="m 855.11853,209.93901 22.2812,-12.8641 -22.2812,-12.86409 -22.2812,12.86409 z"
           inkscape:transform-center-x="-2.5427205e-05" />
        <path
           id="path90008"
           style="fill:#3888f5;fill-opacity:1;stroke:none;stroke-width:2.90452;stroke-linecap:round;stroke-linejoin:round;stroke-miterlimit:4;stroke-dasharray:none;stroke-opacity:1;paint-order:markers fill stroke"
           inkscape:transform-center-x="-2.0733009e-05"
           d="m 832.83733,197.07491 22.2812,-12.86409 v -25.72818 l -22.2812,12.86409 z"
           inkscape:transform-center-y="-1.2018389e-06" />
        <path
           id="path90010"
           style="fill:#7fb2f5;fill-opacity:1;stroke:none;stroke-width:2.90452;stroke-linecap:round;stroke-linejoin:round;stroke-miterlimit:4;stroke-dasharray:none;stroke-opacity:1;paint-order:markers fill stroke"
           inkscape:transform-center-x="-2.0055471e-05"
           d="m 877.39973,197.07491 -22.2812,-12.86409 v -25.72818 l 22.2812,12.86409 z"
           inkscape:transform-center-y="-1.2018389e-06" />
        <path
           id="path90012"
           style="fill:#666666;fill-opacity:1;stroke:none;stroke-width:2.14259;stroke-linecap:round;stroke-linejoin:round;stroke-miterlimit:4;stroke-dasharray:none;stroke-opacity:1;paint-order:markers fill stroke"
           d="m 855.11853,165.23182 -16.4363,9.4895 16.4363,9.4895 16.4362,-9.4895 z"
           inkscape:transform-center-x="4.384175e-05" />
        <path
           id="path90014"
           style="fill:#2d2d2d;fill-opacity:1;stroke:none;stroke-width:2.14259;stroke-linecap:round;stroke-linejoin:round;stroke-miterlimit:4;stroke-dasharray:none;stroke-opacity:1;paint-order:markers fill stroke"
           inkscape:transform-center-x="1.7410452e-05"
           d="m 871.55473,174.72132 -16.4362,9.4895 v 18.979 l 16.4362,-9.4895 z"
           inkscape:transform-center-y="-1.5606887e-06" />
        <path
           id="path90016"
           style="fill:#949494;fill-opacity:1;stroke:none;stroke-width:2.14259;stroke-linecap:round;stroke-linejoin:round;stroke-miterlimit:4;stroke-dasharray:none;stroke-opacity:1;paint-order:markers fill stroke"
           inkscape:transform-center-x="1.2847677e-05"
           d="m 838.68223,174.72132 16.4363,9.4895 v 18.979 l -16.4363,-9.4895 z"
           inkscape:transform-center-y="-1.5606887e-06" />
      </g>
      <g
         aria-label=" REDesign"
         id="text92877"
         style="font-size:38.1px;line-height:0.85;fill:#6aa6f5;stroke-width:0.264583">
        <path
           d="m 797.66525,258.42155 h -2.71612 v 9.89707 H 789.4797 V 241.2319 h 8.72505 q 4.11137,0 6.3438,2.13941 2.25102,2.1208 2.25102,6.04614 0,5.39502 -3.92534,7.55303 l 4.7439,11.08769 v 0.26045 h -5.87871 z m -2.71612,-4.55786 h 3.10679 q 1.63711,0 2.45566,-1.079 0.81856,-1.09761 0.81856,-2.92075 0,-4.07417 -3.1812,-4.07417 h -3.19981 z"
           style="font-weight:bold;font-family:'Roboto Condensed';-inkscape-font-specification:'Roboto Condensed,  Bold'"
           id="path836" />
        <path
           d="m 824.54733,256.59841 h -8.52041 v 7.18095 h 10.0831 v 4.53926 H 810.55748 V 241.2319 h 15.51533 v 4.55787 h -10.04589 v 6.3996 h 8.52041 z"
           style="font-weight:bold;font-family:'Roboto Condensed';-inkscape-font-specification:'Roboto Condensed,  Bold'"
           id="path838" />
        <path
           d="M 829.25402,268.31862 V 241.2319 h 7.16235 q 4.74389,0 7.55303,3.01377 2.82773,3.01377 2.88354,8.25996 v 4.39043 q 0,5.33921 -2.82773,8.39019 -2.80913,3.03237 -7.75767,3.03237 z m 5.46943,-22.52885 v 17.98959 h 1.63711 q 2.73471,0 3.85093,-1.43247 1.11621,-1.45107 1.17202,-4.98574 v -4.70669 q 0,-3.79511 -1.0604,-5.2834 -1.0604,-1.50688 -3.60909,-1.58129 z"
           style="fill:#666666"
           id="path840" />
        <path
           d="m 858.64757,268.69069 q -4.05557,0 -6.3252,-2.41845 -2.26963,-2.41846 -2.26963,-6.92051 v -1.5999 q 0,-4.7625 2.0836,-7.34839 2.08359,-2.58589 5.97173,-2.58589 3.79511,0 5.71127,2.43706 1.91617,2.41846 1.95337,7.18096 v 2.58588 h -10.47378 q 0.11163,2.23243 0.98599,3.27422 0.87437,1.0232 2.69751,1.0232 2.6417,0 4.40903,-1.80454 l 2.06499,3.1812 q -0.96738,1.33945 -2.80913,2.17661 -1.84174,0.81855 -3.99975,0.81855 z m -3.31143,-12.35273 h 5.2648 v -0.48369 q -0.0372,-1.80454 -0.59532,-2.73472 -0.5581,-0.93018 -1.93476,-0.93018 -1.37666,0 -2.00918,0.98599 -0.61392,0.98599 -0.72554,3.1626 z"
           style="fill:#666666"
           id="path842" />
        <path
           d="m 877.66036,262.9236 q 0,-0.66972 -0.65112,-1.22783 -0.63252,-0.57671 -2.84634,-1.54409 -3.25562,-1.32085 -4.48345,-2.73472 -1.20923,-1.41386 -1.20923,-3.51606 0,-2.6417 1.89756,-4.35322 1.91616,-1.73013 5.06016,-1.73013 3.31142,0 5.302,1.71152 1.99058,1.71153 1.99058,4.59507 h -5.2648 q 0,-2.45566 -2.04639,-2.45566 -0.83715,0 -1.37666,0.52089 -0.5395,0.5209 -0.5395,1.45108 0,0.66973 0.59532,1.19062 0.59531,0.5023 2.80913,1.45108 3.2184,1.19062 4.53925,2.6603 1.33946,1.45107 1.33946,3.77651 0,2.69751 -2.02779,4.33462 -2.02778,1.63711 -5.3206,1.63711 -2.21382,0 -3.90674,-0.85576 -1.69292,-0.87436 -2.6603,-2.41846 -0.94878,-1.54409 -0.94878,-3.33003 h 5.00434 q 0.0372,1.37666 0.63252,2.06499 0.61392,0.68833 1.99058,0.68833 2.1208,0 2.1208,-1.91616 z"
           style="fill:#666666"
           id="path844" />
        <path
           d="m 891.57579,268.31862 h -5.2834 v -20.129 h 5.2834 z m -5.52524,-25.33799 q 0,-1.22783 0.78134,-2.00917 0.78135,-0.78135 2.0836,-0.78135 1.30224,0 2.08359,0.78135 0.78135,0.78134 0.78135,2.00917 0,1.20923 -0.78135,2.00918 -0.76274,0.79996 -2.08359,0.79996 -1.32085,0 -2.1022,-0.79996 -0.76274,-0.79995 -0.76274,-2.00918 z"
           style="fill:#666666"
           id="path846" />
        <path
           d="m 895.01745,257.6402 q 0,-4.94853 1.78593,-7.38559 1.78594,-2.43706 5.00435,-2.43706 2.73471,0 4.223,2.15801 l 0.20463,-1.78594 h 4.7439 v 20.129 q 0,3.85093 -2.15801,5.87871 -2.158,2.04639 -6.19497,2.04639 -1.65571,0 -3.47885,-0.66973 -1.82315,-0.65112 -2.71612,-1.67431 l 1.76734,-3.64629 q 0.74414,0.78135 1.93476,1.26504 1.19063,0.50229 2.25103,0.50229 1.76733,0 2.53008,-0.85576 0.78134,-0.83716 0.79995,-2.71611 v -1.73013 q -1.50689,1.97197 -3.92535,1.97197 -3.2184,0 -4.98574,-2.49287 -1.74873,-2.51147 -1.78593,-7.06933 z m 5.26479,1.32085 q 0,2.79053 0.72554,4.07417 0.72553,1.26504 2.30683,1.26504 1.61851,0 2.39986,-1.17202 v -9.61802 q -0.81856,-1.28364 -2.36265,-1.28364 -1.5627,0 -2.32544,1.28364 -0.74414,1.28365 -0.74414,4.12998 z"
           style="fill:#666666"
           id="path848" />
        <path
           d="m 919.6299,248.18962 0.14882,1.99057 q 1.78594,-2.36264 4.66949,-2.36264 5.19038,0 5.33921,7.27397 v 13.2271 h -5.2834 V 255.4822 q 0,-1.71153 -0.5209,-2.47427 -0.5023,-0.78135 -1.78594,-0.78135 -1.43247,0 -2.23242,1.46968 v 14.62236 h -5.2834 v -20.129 z"
           style="fill:#666666"
           id="path850" />
      </g>
    </g>
  </g>
</svg>
