<?xml version="1.0" encoding="UTF-8" standalone="no"?>
<svg
   xmlns:dc="http://purl.org/dc/elements/1.1/"
   xmlns:cc="http://creativecommons.org/ns#"
   xmlns:rdf="http://www.w3.org/1999/02/22-rdf-syntax-ns#"
   xmlns:svg="http://www.w3.org/2000/svg"
   xmlns="http://www.w3.org/2000/svg"
   xmlns:sodipodi="http://sodipodi.sourceforge.net/DTD/sodipodi-0.dtd"
   xmlns:inkscape="http://www.inkscape.org/namespaces/inkscape"
   width="210mm"
   height="297mm"
   viewBox="0 0 210 297"
   version="1.1"
   id="svg8"
   inkscape:version="1.0.1 (3bc2e813f5, 2020-09-07)"
   sodipodi:docname="phone.svg">
  <defs
     id="defs2" />
  <sodipodi:namedview
     id="base"
     pagecolor="#d4d4d4"
     bordercolor="#666666"
     borderopacity="1.0"
     inkscape:pageopacity="0"
     inkscape:pageshadow="2"
     inkscape:zoom="0.35"
     inkscape:cx="258.70119"
     inkscape:cy="567.97908"
     inkscape:document-units="mm"
     inkscape:current-layer="layer1"
     inkscape:document-rotation="0"
     showgrid="false"
     inkscape:window-width="1366"
     inkscape:window-height="705"
     inkscape:window-x="-8"
     inkscape:window-y="-8"
     inkscape:window-maximized="1"
     inkscape:pagecheckerboard="false" />
  <metadata
     id="metadata5">
    <rdf:RDF>
      <cc:Work
         rdf:about="">
        <dc:format>image/svg+xml</dc:format>
        <dc:type
           rdf:resource="http://purl.org/dc/dcmitype/StillImage" />
        <dc:title />
      </cc:Work>
    </rdf:RDF>
  </metadata>
  <g
     inkscape:label="Layer 1"
     inkscape:groupmode="layer"
     id="layer1">
    <g
       id="g68"
       transform="matrix(7.8025085,0,0,7.8025085,-31.543899,11.956101)"
       style="fill:#ffffff">
      <g
         id="g12"
         style="fill:#ffffff">
        <path
           d="M 25.302,0 H 9.698 C 8.398,0 7.334,1.063 7.334,2.364 V 32.635 C 7.334,33.936 8.398,35 9.698,35 h 15.604 c 1.3,0 2.364,-1.062 2.364,-2.364 V 2.364 C 27.666,1.063 26.602,0 25.302,0 Z M 15.004,1.704 h 4.992 c 0.158,0 0.286,0.128 0.286,0.287 0,0.158 -0.128,0.286 -0.286,0.286 h -4.992 c -0.158,0 -0.286,-0.128 -0.286,-0.286 0,-0.159 0.128,-0.287 0.286,-0.287 z M 17.5,33.818 c -0.653,0 -1.182,-0.529 -1.182,-1.183 0,-0.654 0.529,-1.182 1.182,-1.182 0.653,0 1.182,0.528 1.182,1.182 0,0.654 -0.529,1.183 -1.182,1.183 z m 8.521,-3.193 H 8.979 V 3.749 h 17.042 z"
           id="path10"
           style="fill:#ffffff" />
      </g>
      <g
         id="g14"
         style="fill:#ffffff" />
      <g
         id="g16"
         style="fill:#ffffff" />
      <g
         id="g18"
         style="fill:#ffffff" />
      <g
         id="g20"
         style="fill:#ffffff" />
      <g
         id="g22"
         style="fill:#ffffff" />
      <g
         id="g24"
         style="fill:#ffffff" />
      <g
         id="g26"
         style="fill:#ffffff" />
      <g
         id="g28"
         style="fill:#ffffff" />
      <g
         id="g30"
         style="fill:#ffffff" />
      <g
         id="g32"
         style="fill:#ffffff" />
      <g
         id="g34"
         style="fill:#ffffff" />
      <g
         id="g36"
         style="fill:#ffffff" />
      <g
         id="g38"
         style="fill:#ffffff" />
      <g
         id="g40"
         style="fill:#ffffff" />
      <g
         id="g42"
         style="fill:#ffffff" />
    </g>
  </g>
</svg>
