<?xml version="1.0" encoding="UTF-8" standalone="no"?>
<svg
   xmlns:dc="http://purl.org/dc/elements/1.1/"
   xmlns:cc="http://creativecommons.org/ns#"
   xmlns:rdf="http://www.w3.org/1999/02/22-rdf-syntax-ns#"
   xmlns:svg="http://www.w3.org/2000/svg"
   xmlns="http://www.w3.org/2000/svg"
   xmlns:sodipodi="http://sodipodi.sourceforge.net/DTD/sodipodi-0.dtd"
   xmlns:inkscape="http://www.inkscape.org/namespaces/inkscape"
   id="Capa_1"
   enable-background="new 0 0 512 512"
   height="512"
   viewBox="0 0 512 512"
   width="512"
   version="1.1"
   sodipodi:docname="remove.svg"
   inkscape:version="1.0.1 (3bc2e813f5, 2020-09-07)">
  <metadata
     id="metadata13">
    <rdf:RDF>
      <cc:Work
         rdf:about="">
        <dc:format>image/svg+xml</dc:format>
        <dc:type
           rdf:resource="http://purl.org/dc/dcmitype/StillImage" />
      </cc:Work>
    </rdf:RDF>
  </metadata>
  <defs
     id="defs11" />
  <sodipodi:namedview
     pagecolor="#ffffff"
     bordercolor="#666666"
     borderopacity="1"
     objecttolerance="10"
     gridtolerance="10"
     guidetolerance="10"
     inkscape:pageopacity="0"
     inkscape:pageshadow="2"
     inkscape:window-width="1366"
     inkscape:window-height="705"
     id="namedview9"
     showgrid="false"
     inkscape:zoom="0.37150727"
     inkscape:cx="-233.03007"
     inkscape:cy="439.46797"
     inkscape:window-x="-8"
     inkscape:window-y="-8"
     inkscape:window-maximized="1"
     inkscape:current-layer="Capa_1" />
  <g
     id="g6"
     style="fill:#ffffff;fill-opacity:1">
    <path
       d="m442.154 145c10.585 0 17.924-10.701 13.955-20.514-14.093-34.841-48.275-59.486-88.109-59.486h-18.414c-6.867-36.273-38.67-65-77.586-65h-32c-38.891 0-70.715 28.708-77.586 65h-18.414c-39.834 0-74.016 24.645-88.109 59.486-3.969 9.813 3.37 20.514 13.955 20.514zm-202.154-115h32c21.9 0 40.49 14.734 46.748 35h-125.496c6.258-20.266 24.848-35 46.748-35z"
       id="path2"
       style="fill:#ffffff;fill-opacity:1" />
    <path
       d="m111.053 470.196c1.669 23.442 21.386 41.804 44.886 41.804h200.121c23.5 0 43.217-18.362 44.886-41.804l21.023-295.196h-331.938zm185.966-214.945c.414-8.274 7.469-14.655 15.73-14.232 8.274.414 14.646 7.457 14.232 15.73l-8 160c-.401 8.019-7.029 14.251-14.969 14.251-8.637 0-15.42-7.223-14.994-15.749zm-97.768-14.232c8.263-.415 15.317 5.959 15.73 14.232l8 160c.426 8.53-6.362 15.749-14.994 15.749-7.94 0-14.568-6.232-14.969-14.251l-8-160c-.413-8.273 5.959-15.316 14.233-15.73z"
       id="path4"
       style="fill:#ffffff;fill-opacity:1" />
  </g>
</svg>
