<?xml version="1.0" encoding="UTF-8" standalone="no"?>
<!-- Created with Inkscape (http://www.inkscape.org/) -->

<svg
   width="192.37048mm"
   height="90.475853mm"
   viewBox="0 0 192.37048 90.475853"
   version="1.1"
   id="svg1016"
   sodipodi:docname="logo_h.svg"
   inkscape:version="1.1 (c68e22c387, 2021-05-23)"
   xmlns:inkscape="http://www.inkscape.org/namespaces/inkscape"
   xmlns:sodipodi="http://sodipodi.sourceforge.net/DTD/sodipodi-0.dtd"
   xmlns="http://www.w3.org/2000/svg"
   xmlns:svg="http://www.w3.org/2000/svg">
  <sodipodi:namedview
     id="namedview1018"
     pagecolor="#ffffff"
     bordercolor="#999999"
     borderopacity="1"
     inkscape:pageshadow="0"
     inkscape:pageopacity="0"
     inkscape:pagecheckerboard="0"
     inkscape:document-units="mm"
     showgrid="false"
     inkscape:zoom="0.44542649"
     inkscape:cx="105.51685"
     inkscape:cy="170.62299"
     inkscape:window-width="1366"
     inkscape:window-height="705"
     inkscape:window-x="-8"
     inkscape:window-y="-8"
     inkscape:window-maximized="1"
     inkscape:current-layer="layer1"
     fit-margin-top="0"
     fit-margin-left="0"
     fit-margin-right="0"
     fit-margin-bottom="0" />
  <defs
     id="defs1013" />
  <g
     inkscape:label="Layer 1"
     inkscape:groupmode="layer"
     id="layer1"
     transform="translate(-8.814719,-103.26207)">
    <g
       id="g100561"
       transform="translate(-1004.402,-54.953878)">
      <g
         aria-label=" RE Design"
         id="text92889"
         style="font-size:38.1px;line-height:0.85;fill:#6aa6f5;stroke-width:0.264583">
        <path
           d="m 1113.258,186.23398 h -2.7162 v 9.89707 h -5.4694 v -27.08672 h 8.7251 q 4.1113,0 6.3438,2.1394 2.251,2.1208 2.251,6.04614 0,5.39502 -3.9254,7.55303 l 4.7439,11.0877 v 0.26045 h -5.8787 z m -2.7162,-4.55787 h 3.1068 q 1.6371,0 2.4557,-1.079 0.8186,-1.09761 0.8186,-2.92075 0,-4.07417 -3.1813,-4.07417 h -3.1998 z"
           style="font-weight:bold;font-family:'Roboto Condensed';-inkscape-font-specification:'Roboto Condensed,  Bold'"
           id="path838" />
        <path
           d="m 1140.14,184.41083 h -8.5204 v 7.18096 h 10.0831 v 4.53926 h -15.5525 v -27.08672 h 15.5153 v 4.55786 h -10.0459 v 6.39961 h 8.5204 z"
           style="font-weight:bold;font-family:'Roboto Condensed';-inkscape-font-specification:'Roboto Condensed,  Bold'"
           id="path840" />
        <path
           d="m 1105.0538,229.93833 v -27.08672 h 7.1624 q 4.7439,0 7.553,3.01377 2.8277,3.01377 2.8835,8.25996 v 4.39043 q 0,5.33921 -2.8277,8.39019 -2.8091,3.03237 -7.7577,3.03237 z m 5.4694,-22.52886 v 17.9896 h 1.6372 q 2.7347,0 3.8509,-1.43247 1.1162,-1.45107 1.172,-4.98574 v -4.70669 q 0,-3.79512 -1.0604,-5.2834 -1.0604,-1.50688 -3.6091,-1.5813 z"
           style="fill:#666666"
           id="path842" />
        <path
           d="m 1134.4474,230.3104 q -4.0556,0 -6.3252,-2.41846 -2.2697,-2.41845 -2.2697,-6.9205 v -1.59991 q 0,-4.7625 2.0836,-7.34838 2.0836,-2.58589 5.9718,-2.58589 3.7951,0 5.7112,2.43706 1.9162,2.41845 1.9534,7.18095 v 2.58589 h -10.4738 q 0.1117,2.23242 0.986,3.27422 0.8744,1.02319 2.6975,1.02319 2.6417,0 4.4091,-1.80454 l 2.0649,3.1812 q -0.9673,1.33946 -2.8091,2.17662 -1.8417,0.81855 -3.9997,0.81855 z m -3.3115,-12.35273 h 5.2648 v -0.48369 q -0.037,-1.80455 -0.5953,-2.73472 -0.5581,-0.93018 -1.9347,-0.93018 -1.3767,0 -2.0092,0.98599 -0.6139,0.98599 -0.7256,3.1626 z"
           style="fill:#666666"
           id="path844" />
        <path
           d="m 1153.4602,224.54331 q 0,-0.66973 -0.6512,-1.22783 -0.6325,-0.57671 -2.8463,-1.54409 -3.2556,-1.32085 -4.4835,-2.73472 -1.2092,-1.41387 -1.2092,-3.51606 0,-2.6417 1.8976,-4.35323 1.9161,-1.73012 5.0601,-1.73012 3.3115,0 5.302,1.71152 1.9906,1.71152 1.9906,4.59507 h -5.2648 q 0,-2.45567 -2.0464,-2.45567 -0.8371,0 -1.3766,0.5209 -0.5395,0.5209 -0.5395,1.45108 0,0.66972 0.5953,1.19062 0.5953,0.5023 2.8091,1.45108 3.2184,1.19062 4.5393,2.6603 1.3394,1.45107 1.3394,3.77651 0,2.69751 -2.0278,4.33462 -2.0277,1.63711 -5.3206,1.63711 -2.2138,0 -3.9067,-0.85576 -1.6929,-0.87437 -2.6603,-2.41846 -0.9488,-1.54409 -0.9488,-3.33003 h 5.0044 q 0.037,1.37666 0.6325,2.06499 0.6139,0.68833 1.9906,0.68833 2.1208,0 2.1208,-1.91616 z"
           style="fill:#666666"
           id="path846" />
        <path
           d="m 1167.3756,229.93833 h -5.2834 v -20.129 h 5.2834 z m -5.5253,-25.33799 q 0,-1.22783 0.7814,-2.00918 0.7813,-0.78134 2.0836,-0.78134 1.3022,0 2.0836,0.78134 0.7813,0.78135 0.7813,2.00918 0,1.20923 -0.7813,2.00918 -0.7628,0.79995 -2.0836,0.79995 -1.3209,0 -2.1022,-0.79995 -0.7628,-0.79995 -0.7628,-2.00918 z"
           style="fill:#666666"
           id="path848" />
        <path
           d="m 1170.8172,219.25991 q 0,-4.94853 1.786,-7.38559 1.7859,-2.43706 5.0043,-2.43706 2.7347,0 4.223,2.158 l 0.2047,-1.78593 h 4.7439 v 20.129 q 0,3.85093 -2.1581,5.87871 -2.158,2.04639 -6.1949,2.04639 -1.6557,0 -3.4789,-0.66973 -1.8231,-0.65112 -2.7161,-1.67432 l 1.7673,-3.64628 q 0.7442,0.78134 1.9348,1.26503 1.1906,0.5023 2.251,0.5023 1.7674,0 2.5301,-0.85576 0.7814,-0.83716 0.8,-2.71612 v -1.73012 q -1.5069,1.97197 -3.9254,1.97197 -3.2184,0 -4.9857,-2.49287 -1.7488,-2.51147 -1.786,-7.06934 z m 5.2648,1.32085 q 0,2.79053 0.7256,4.07417 0.7255,1.26504 2.3068,1.26504 1.6185,0 2.3999,-1.17202 v -9.61802 q -0.8186,-1.28364 -2.3627,-1.28364 -1.5627,0 -2.3254,1.28364 -0.7442,1.28364 -0.7442,4.12998 z"
           style="fill:#666666"
           id="path850" />
        <path
           d="m 1195.4297,209.80933 0.1488,1.99057 q 1.786,-2.36264 4.6695,-2.36264 5.1904,0 5.3392,7.27397 v 13.2271 h -5.2834 V 217.1019 q 0,-1.71152 -0.5209,-2.47426 -0.5023,-0.78135 -1.7859,-0.78135 -1.4325,0 -2.2325,1.46968 v 14.62236 h -5.2833 v -20.129 z"
           style="fill:#666666"
           id="path852" />
      </g>
      <g
         id="g98085"
         transform="translate(-17.363281,5.9123728)">
        <path
           id="path92891"
           style="fill:#6aa6f5;fill-opacity:1;stroke:none;stroke-width:5.10703;stroke-linecap:round;stroke-linejoin:round;stroke-miterlimit:4;stroke-dasharray:none;stroke-opacity:1;paint-order:markers fill stroke"
           d="m 1069.7571,152.30358 -39.1771,22.61897 39.1771,22.61896 39.177,-22.61896 z"
           inkscape:transform-center-x="4.9489457e-05"
           inkscape:transform-center-y="-1.2368513e-06" />
        <path
           id="path92893"
           style="fill:#3888f5;fill-opacity:1;stroke:none;stroke-width:5.10703;stroke-linecap:round;stroke-linejoin:round;stroke-miterlimit:4;stroke-dasharray:none;stroke-opacity:1;paint-order:markers fill stroke"
           inkscape:transform-center-x="3.4902776e-05"
           d="m 1108.9341,174.92255 -39.177,22.61896 v 45.23792 l 39.177,-22.61896 z"
           inkscape:transform-center-y="-1.319995e-06" />
        <path
           id="path92895"
           style="fill:#7fb2f5;fill-opacity:1;stroke:none;stroke-width:5.10703;stroke-linecap:round;stroke-linejoin:round;stroke-miterlimit:4;stroke-dasharray:none;stroke-opacity:1;paint-order:markers fill stroke"
           inkscape:transform-center-x="-3.6228061e-06"
           d="m 1030.58,174.92255 39.1771,22.61896 v 45.23792 L 1030.58,220.16047 Z"
           inkscape:transform-center-y="-1.319995e-06" />
        <path
           id="path92897"
           style="fill:#6aa6f5;fill-opacity:1;stroke:none;stroke-width:2.90452;stroke-linecap:round;stroke-linejoin:round;stroke-miterlimit:4;stroke-dasharray:none;stroke-opacity:1;paint-order:markers fill stroke"
           d="m 1069.7571,223.2697 22.2812,-12.8641 -22.2812,-12.86409 -22.2812,12.86409 z"
           inkscape:transform-center-x="-2.5427205e-05" />
        <path
           id="path92899"
           style="fill:#3888f5;fill-opacity:1;stroke:none;stroke-width:2.90452;stroke-linecap:round;stroke-linejoin:round;stroke-miterlimit:4;stroke-dasharray:none;stroke-opacity:1;paint-order:markers fill stroke"
           inkscape:transform-center-x="-2.0733009e-05"
           d="m 1047.4759,210.4056 22.2812,-12.86409 v -25.72817 l -22.2812,12.86409 z"
           inkscape:transform-center-y="-1.2018389e-06" />
        <path
           id="path92901"
           style="fill:#7fb2f5;fill-opacity:1;stroke:none;stroke-width:2.90452;stroke-linecap:round;stroke-linejoin:round;stroke-miterlimit:4;stroke-dasharray:none;stroke-opacity:1;paint-order:markers fill stroke"
           inkscape:transform-center-x="-2.0055471e-05"
           d="m 1092.0383,210.4056 -22.2812,-12.86409 v -25.72817 l 22.2812,12.86409 z"
           inkscape:transform-center-y="-1.2018389e-06" />
        <path
           id="path92903"
           style="fill:#666666;fill-opacity:1;stroke:none;stroke-width:2.14259;stroke-linecap:round;stroke-linejoin:round;stroke-miterlimit:4;stroke-dasharray:none;stroke-opacity:1;paint-order:markers fill stroke"
           d="m 1069.7571,178.56252 -16.4363,9.48949 16.4363,9.4895 16.4362,-9.4895 z"
           inkscape:transform-center-x="4.384175e-05" />
        <path
           id="path92905"
           style="fill:#2d2d2d;fill-opacity:1;stroke:none;stroke-width:2.14259;stroke-linecap:round;stroke-linejoin:round;stroke-miterlimit:4;stroke-dasharray:none;stroke-opacity:1;paint-order:markers fill stroke"
           inkscape:transform-center-x="1.7410452e-05"
           d="m 1086.1933,188.05201 -16.4362,9.4895 v 18.979 l 16.4362,-9.48949 z"
           inkscape:transform-center-y="-1.5606887e-06" />
        <path
           id="path92907"
           style="fill:#949494;fill-opacity:1;stroke:none;stroke-width:2.14259;stroke-linecap:round;stroke-linejoin:round;stroke-miterlimit:4;stroke-dasharray:none;stroke-opacity:1;paint-order:markers fill stroke"
           inkscape:transform-center-x="1.2847677e-05"
           d="m 1053.3208,188.05201 16.4363,9.4895 v 18.979 l -16.4363,-9.48949 z"
           inkscape:transform-center-y="-1.5606887e-06" />
      </g>
    </g>
  </g>
</svg>
